<svg width="100%" height="100%" viewBox="0 0 100 100" version="1.1" xmlns="http://www.w3.org/2000/svg" xml:space="preserve" style="fill-rule:evenodd;clip-rule:evenodd;stroke-linejoin:round;stroke-miterlimit:2;">
    
    <path fill="#00BFFF" d="M 50 5 C 25 5 5 25 5 50 C 5 70 17.5 87.5 35 93 L 50 100 L 65 93 C 82.5 87.5 95 70 95 50 C 95 25 75 5 50 5 Z"/>
    
    <circle fill="#FFFFFF" cx="50" cy="50" r="12"/>
    
    <circle fill="#FFFFFF" cx="30" cy="45" r="5"/>
    <circle fill="#FFFFFF" cx="70" cy="55" r="5"/>
    <circle fill="#FFFFFF" cx="45" cy="70" r="7"/>
    <circle fill="#FFFFFF" cx="55" cy="30" r="6"/>
    
    <circle fill="#FFFFFF" cx="20" cy="65" r="4"/>
    <circle fill="#FFFFFF" cx="80" cy="35" r="4"/>
    
    <line x1="50" y1="50" x2="30" y2="45" stroke="#FFFFFF" stroke-width="2"/>
    <line x1="50" y1="50" x2="70" y2="55" stroke="#FFFFFF" stroke-width="2"/>
    <line x1="50" y1="50" x2="45" y2="70" stroke="#FFFFFF" stroke-width="2"/>
    <line x1="50" y1="50" x2="55" y2="30" stroke="#FFFFFF" stroke-width="2"/>
    
</svg>